0
SECTION
2
HEADER
9
$INSUNITS
70
4
9
$ACADVER
1
AC1014
9
$HANDSEED
5
FFFF
0
ENDSEC
0
SECTION
2
TABLES
0
TABLE
2
VPORT
5
8
100
AcDbSymbolTable
0
ENDTAB
0
TABLE
2
LTYPE
5
5
100
AcDbSymbolTable
0
LTYPE
5
14
100
AcDbSymbolTableRecord
100
AcDbLinetypeTableRecord
2
BYBLOCK
70
0
0
LTYPE
5
15
100
AcDbSymbolTableRecord
100
AcDbLinetypeTableRecord
2
BYLAYER
70
0
0
LTYPE
5
16
100
AcDbSymbolTableRecord
100
AcDbLinetypeTableRecord
2
DASHED
70
0
3
Dashed __ __ __ __ __ __ __ __ __ __ __ __ __ _
72
65
73
2
40
0.75
49
0.5
74
0
49
-0.25
74
0
0
ENDTAB
0
TABLE
2
LAYER
5
2
100
AcDbSymbolTable
70
2
0
LAYER
5
50
100
AcDbSymbolTableRecord
100
AcDbLayerTableRecord
2
0
70
0
62
7
6
CONTINUOUS
0
ENDTAB
0
TABLE
2
STYLE
5
3
100
AcDbSymbolTable
70
1
0
STYLE
5
11
100
AcDbSymbolTableRecord
100
AcDbTextStyleTableRecord
2
STANDARD
70
0
0
ENDTAB
0
TABLE
2
VIEW
5
6
100
AcDbSymbolTable
70
0
0
ENDTAB
0
TABLE
2
UCS
5
7
100
AcDbSymbolTable
70
0
0
ENDTAB
0
TABLE
2
APPID
5
9
100
AcDbSymbolTable
70
2
0
APPID
5
12
100
AcDbSymbolTableRecord
100
AcDbRegAppTableRecord
2
ACAD
70
0
0
ENDTAB
0
TABLE
2
DIMSTYLE
5
A
100
AcDbSymbolTable
70
1
0
ENDTAB
0
TABLE
2
BLOCK_RECORD
5
1
100
AcDbSymbolTable
70
1
0
BLOCK_RECORD
5
1F
100
AcDbSymbolTableRecord
100
AcDbBlockTableRecord
2
*MODEL_SPACE
0
BLOCK_RECORD
5
1B
100
AcDbSymbolTableRecord
100
AcDbBlockTableRecord
2
*PAPER_SPACE
0
ENDTAB
0
ENDSEC
0
SECTION
2
BLOCKS
0
BLOCK
5
20
100
AcDbEntity
100
AcDbBlockBegin
2
*MODEL_SPACE
0
ENDBLK
5
21
100
AcDbEntity
100
AcDbBlockEnd
0
BLOCK
5
1C
100
AcDbEntity
100
AcDbBlockBegin
2
*PAPER_SPACE
0
ENDBLK
5
1D
100
AcDbEntity
100
AcDbBlockEnd
0
ENDSEC
0
SECTION
2
ENTITIES
0
CIRCLE
5
100
100
AcDbEntity
8
0
100
AcDbCircle
10
6.176416948149221
20
457.44430311061012
30
0
40
1.4999999999999991
210
0
220
-0
230
1
0
LWPOLYLINE
5
101
100
AcDbEntity
8
0
100
AcDbPolyline
90
4
70
1
43
0.0
10
4.9949152521139801
20
442.61153457060374
10
7.4319433334412732
20
442.61153457060374
10
7.4319433334412732
20
433.27770261365572
10
4.9949152521139801
20
433.27770261365572
0
LWPOLYLINE
5
102
100
AcDbEntity
8
0
100
AcDbPolyline
90
4
70
1
43
0.0
10
-162.2153693210403
20
449.19875591387387
10
174.56820321733872
20
449.19875591387387
10
174.56820321733875
20
446.57887416504963
10
-162.21536932104027
20
446.57887416504963
0
LWPOLYLINE
5
103
100
AcDbEntity
8
0
100
AcDbPolyline
90
4
70
1
43
0.0
10
4.9949152521139801
20
511.33209505390204
10
7.4319433334412732
20
511.33209505390204
10
7.4319433334412732
20
495.15267654555475
10
4.9949152521139801
20
495.15267654555475
0
SPLINE
5
104
100
AcDbEntity
8
0
100
AcDbSpline
70
4
71
5
72
16
73
10
74
0
42
0.000000001
43
0.0000000001
44
0.0000000001
40
0.54712976990013829
40
0.54712976990013829
40
0.54712976990013829
40
0.54712976990013829
40
0.54712976990013829
40
0.54712976990013829
40
0.59999999999999998
40
0.69999999999999996
40
0.79999999999999993
40
0.89999999999999991
40
1
40
1
40
1
40
1
40
1
40
1
41
1
41
1
41
1
41
1
41
1
41
1
41
1
41
1
41
1
41
1
10
-221.87371809287555
20
459.80560010897278
30
0
10
-221.82329348666056
20
458.62099708973039
30
0
10
-221.64345745572859
20
455.23086557596343
30
0
10
-221.18416248343823
20
449.82138804049072
30
0
10
-220.17845960900192
20
442.92390585748194
30
0
10
-218.27851249246859
20
435.70817894066431
30
0
10
-216.04100638692304
20
431.40833452094807
30
0
10
-214.06896937281698
20
429.51757207127059
30
0
10
-212.62583195845707
20
428.87093588478638
30
0
10
-211.87215271716053
20
428.70108966271675
30
0
0
LINE
5
105
100
AcDbEntity
8
0
100
AcDbLine
10
-211.87215271716056
20
428.70108966271681
30
0
11
-27.216655077290781
21
418.94255659954752
31
0
0
LINE
5
106
100
AcDbEntity
8
0
100
AcDbLine
10
-27.216655077290781
20
418.94255659954752
30
0
11
39.569488973589209
21
418.94255659954752
31
0
0
LINE
5
107
100
AcDbEntity
8
0
100
AcDbLine
10
39.569488973589209
20
418.94255659954752
30
0
11
224.22498661345895
21
428.70108966271675
31
0
0
SPLINE
5
108
100
AcDbEntity
8
0
100
AcDbSpline
70
4
71
5
72
16
73
10
74
0
42
0.000000001
43
0.0000000001
44
0.0000000001
40
-1
40
-1
40
-1
40
-1
40
-1
40
-1
40
-0.89999999999999991
40
-0.79999999999999993
40
-0.69999999999999996
40
-0.59999999999999998
40
-0.54712976990013829
40
-0.54712976990013829
40
-0.54712976990013829
40
-0.54712976990013829
40
-0.54712976990013829
40
-0.54712976990013829
41
1
41
1
41
1
41
1
41
1
41
1
41
1
41
1
41
1
41
1
10
224.22498661345895
20
428.70108966271675
30
0
10
224.97866585475549
20
428.87093588478638
30
0
10
226.4218032691154
20
429.51757207127059
30
0
10
228.39384028322146
20
431.40833452094807
30
0
10
230.63134638876701
20
435.70817894066431
30
0
10
232.53129350530034
20
442.92390585748194
30
0
10
233.53699637973665
20
449.82138804049072
30
0
10
233.99629135202704
20
455.23086557596343
30
0
10
234.17612738295901
20
458.62099708973039
30
0
10
234.226551989174
20
459.80560010897278
30
0
0
LINE
5
109
100
AcDbEntity
8
0
100
AcDbLine
10
234.226551989174
20
459.80560010897278
30
0
11
206.35511818955447
21
459.80560010897278
31
0
0
LINE
5
110
100
AcDbEntity
8
0
100
AcDbLine
10
206.35511818955447
20
459.80560010897278
30
0
11
192.2188486063701
21
473.75702385839611
31
0
0
LINE
5
111
100
AcDbEntity
8
0
100
AcDbLine
10
192.2188486063701
20
473.75702385839611
30
0
11
41.185272272060587
21
495.896643862703
31
0
0
LINE
5
112
100
AcDbEntity
8
0
100
AcDbLine
10
41.185272272060587
20
495.896643862703
30
0
11
36.209117128897972
21
547.5957811420717
31
0
0
LINE
5
113
100
AcDbEntity
8
0
100
AcDbLine
10
36.209117128897972
20
547.5957811420717
30
0
11
6.1764169481492193
21
547.62744019973923
31
0
0
LINE
5
114
100
AcDbEntity
8
0
100
AcDbLine
10
6.1764169481492193
20
547.62744019973923
30
0
11
-23.856283232599541
21
547.5957811420717
31
0
0
LINE
5
115
100
AcDbEntity
8
0
100
AcDbLine
10
-23.856283232599541
20
547.5957811420717
30
0
11
-28.832438375762145
21
495.896643862703
31
0
0
LINE
5
116
100
AcDbEntity
8
0
100
AcDbLine
10
-28.832438375762145
20
495.896643862703
30
0
11
-179.86601471007168
21
473.75702385839611
31
0
0
LINE
5
117
100
AcDbEntity
8
0
100
AcDbLine
10
-179.86601471007168
20
473.75702385839611
30
0
11
-194.00228429325605
21
459.80560010897278
31
0
0
LINE
5
118
100
AcDbEntity
8
0
100
AcDbLine
10
-194.00228429325605
20
459.80560010897278
30
0
11
-221.87371809287555
21
459.80560010897278
31
0
0
ENDSEC
0
SECTION
2
OBJECTS
0
DICTIONARY
5
C
100
AcDbDictionary
3
ACAD_GROUP
350
D
3
ACAD_MLINESTYLE
350
17
0
DICTIONARY
5
D
100
AcDbDictionary
0
DICTIONARY
5
1A
330
C
100
AcDbDictionary
0
DICTIONARY
5
17
100
AcDbDictionary
0
ENDSEC
0
EOF
