0
SECTION
2
HEADER
9
$INSUNITS
70
4
9
$ACADVER
1
AC1014
9
$HANDSEED
5
FFFF
0
ENDSEC
0
SECTION
2
TABLES
0
TABLE
2
VPORT
5
8
100
AcDbSymbolTable
0
ENDTAB
0
TABLE
2
LTYPE
5
5
100
AcDbSymbolTable
0
LTYPE
5
14
100
AcDbSymbolTableRecord
100
AcDbLinetypeTableRecord
2
BYBLOCK
70
0
0
LTYPE
5
15
100
AcDbSymbolTableRecord
100
AcDbLinetypeTableRecord
2
BYLAYER
70
0
0
LTYPE
5
16
100
AcDbSymbolTableRecord
100
AcDbLinetypeTableRecord
2
DASHED
70
0
3
Dashed __ __ __ __ __ __ __ __ __ __ __ __ __ _
72
65
73
2
40
0.75
49
0.5
74
0
49
-0.25
74
0
0
ENDTAB
0
TABLE
2
LAYER
5
2
100
AcDbSymbolTable
70
2
0
LAYER
5
50
100
AcDbSymbolTableRecord
100
AcDbLayerTableRecord
2
0
70
0
62
7
6
CONTINUOUS
0
ENDTAB
0
TABLE
2
STYLE
5
3
100
AcDbSymbolTable
70
1
0
STYLE
5
11
100
AcDbSymbolTableRecord
100
AcDbTextStyleTableRecord
2
STANDARD
70
0
0
ENDTAB
0
TABLE
2
VIEW
5
6
100
AcDbSymbolTable
70
0
0
ENDTAB
0
TABLE
2
UCS
5
7
100
AcDbSymbolTable
70
0
0
ENDTAB
0
TABLE
2
APPID
5
9
100
AcDbSymbolTable
70
2
0
APPID
5
12
100
AcDbSymbolTableRecord
100
AcDbRegAppTableRecord
2
ACAD
70
0
0
ENDTAB
0
TABLE
2
DIMSTYLE
5
A
100
AcDbSymbolTable
70
1
0
ENDTAB
0
TABLE
2
BLOCK_RECORD
5
1
100
AcDbSymbolTable
70
1
0
BLOCK_RECORD
5
1F
100
AcDbSymbolTableRecord
100
AcDbBlockTableRecord
2
*MODEL_SPACE
0
BLOCK_RECORD
5
1B
100
AcDbSymbolTableRecord
100
AcDbBlockTableRecord
2
*PAPER_SPACE
0
ENDTAB
0
ENDSEC
0
SECTION
2
BLOCKS
0
BLOCK
5
20
100
AcDbEntity
100
AcDbBlockBegin
2
*MODEL_SPACE
0
ENDBLK
5
21
100
AcDbEntity
100
AcDbBlockEnd
0
BLOCK
5
1C
100
AcDbEntity
100
AcDbBlockBegin
2
*PAPER_SPACE
0
ENDBLK
5
1D
100
AcDbEntity
100
AcDbBlockEnd
0
ENDSEC
0
SECTION
2
ENTITIES
0
POINT
5
100
100
AcDbEntity
8
0
100
AcDbPoint
10
19.847111768440595
20
276.47692760377993
30
0
0
POINT
5
101
100
AcDbEntity
8
0
100
AcDbPoint
10
-428.65315939226753
20
-118.86196050216512
30
0
0
LWPOLYLINE
5
102
100
AcDbEntity
8
0
100
AcDbPolyline
90
4
70
1
43
0.0
10
17.741790283907211
20
325.26907633583778
10
22.457817532993882
20
325.26907633583778
10
22.457817532993882
20
306.40496733949107
10
17.741790283907211
20
306.40496733949107
0
LINE
5
103
100
AcDbEntity
8
0
100
AcDbLine
10
17.571736904248283
20
354.26966060719479
30
0
11
17.571736904248283
21
94.074645545931787
31
0
0
LINE
5
104
100
AcDbEntity
8
0
100
AcDbLine
10
17.571736904248283
20
94.074645545931787
30
0
11
22.625561286127773
21
94.074645545931787
31
0
0
LINE
5
105
100
AcDbEntity
8
0
100
AcDbLine
10
22.625561286127773
20
94.074645545931787
30
0
11
22.625561286127773
21
354.28507928383567
31
0
0
LWPOLYLINE
5
106
100
AcDbEntity
8
0
100
AcDbPolyline
90
4
70
1
43
0.0
10
17.571736904248283
20
200.01173183745621
10
22.625561286127773
20
200.01173183745621
10
22.625561286127773
20
167.41333054824861
10
17.571736904248283
20
167.41333054824861
0
LINE
5
107
100
AcDbEntity
8
0
100
AcDbLine
10
20.09864909518803
20
94.074645545931787
30
0
11
20.09864909518803
21
354.26966060719479
31
0
0
LINE
5
108
100
AcDbEntity
8
0
100
AcDbLine
10
20.09864909518803
20
354.26966060719479
30
0
11
-47.009771817460177
21
354.26966060719479
31
0
0
LINE
5
109
100
AcDbEntity
8
0
100
AcDbLine
10
-47.009771817460177
20
354.26966060719479
30
0
11
-420.4750868176904
21
334.58009700758066
31
0
0
LINE
5
110
100
AcDbEntity
8
0
100
AcDbLine
10
-440.95423468758639
20
271.61227381210585
30
0
11
-384.85898004746844
21
271.61227381210585
31
0
0
LINE
5
111
100
AcDbEntity
8
0
100
AcDbLine
10
-384.85898004746844
20
271.61227381210585
30
0
11
-355.97549628409638
21
243.28602767760916
31
0
0
LINE
5
112
100
AcDbEntity
8
0
100
AcDbLine
10
-355.97549628409638
20
243.28602767760916
30
0
11
-50.647695760036058
21
198.56526674015549
31
0
0
LINE
5
113
100
AcDbEntity
8
0
100
AcDbLine
10
-50.647695760036058
20
198.56526674015549
30
0
11
-40.512667434501651
21
94.079319318470425
31
0
0
LINE
5
114
100
AcDbEntity
8
0
100
AcDbLine
10
-40.512667434501651
20
94.079319318470425
30
0
11
-420.76554656106487
21
176.87554851451893
31
0
0
SPLINE
5
115
100
AcDbEntity
8
0
100
AcDbSpline
70
4
71
5
72
21
73
15
74
0
42
0.000000001
43
0.0000000001
44
0.0000000001
40
0
40
0
40
0
40
0
40
0
40
0
40
0.10000000000000001
40
0.20000000000000001
40
0.30000000000000004
40
0.40000000000000002
40
0.5
40
0.59999999999999998
40
0.69999999999999996
40
0.79999999999999993
40
0.89999999999999991
40
1
40
1
40
1
40
1
40
1
40
1
41
1
41
1
41
1
41
1
41
1
41
1
41
1
41
1
41
1
41
1
41
1
41
1
41
1
41
1
41
1
10
-420.4750868176904
20
334.58009700758066
30
0
10
-422.03062932905772
20
334.32889656648217
30
0
10
-424.9948316095323
20
333.16245412776021
30
0
10
-429.00050408281965
20
329.42076188267913
30
0
10
-433.47278971865296
20
320.62108757724297
30
0
10
-437.65394527001854
20
304.26377253872192
30
0
10
-440.43361820032408
20
283.90540564938283
30
0
10
-441.766318030859
20
261.14389237897899
30
0
10
-441.54886723407748
20
237.78142738253106
30
0
10
-439.62098531341621
20
215.74328622395694
30
0
10
-435.77065591766871
20
196.91360962843302
30
0
10
-430.96351957121874
20
185.76484092349443
30
0
10
-426.29179870795815
20
180.17655511124735
30
0
10
-422.6890183251702
20
177.75803661702142
30
0
10
-420.76554656106487
20
176.87554851451893
30
0
0
LINE
5
116
100
AcDbEntity
8
0
100
AcDbLine
10
-40.512667434501651
20
94.079319318470425
30
0
11
17.571736904248283
21
94.074645545931787
31
0
0
LINE
5
117
100
AcDbEntity
8
0
100
AcDbLine
10
-426.47424021843875
20
-97.990208416014411
30
0
11
-430.83207856609641
21
-139.73371258831577
31
0
6
DASHED
0
CIRCLE
5
118
100
AcDbEntity
8
0
100
AcDbCircle
10
-428.65315939226753
20
-118.86196050216512
30
0
40
24.037999761655904
210
0
220
0
230
1
0
LWPOLYLINE
5
119
100
AcDbEntity
8
0
100
AcDbPolyline
90
4
70
1
43
0.0
10
-426.47424021843875
20
-97.990208416014411
10
-431.57014735503594
20
-97.990208416014411
10
-431.57014735503594
20
-93.989238808329077
10
-426.47424021843875
20
-93.989238808329077
0
LWPOLYLINE
5
120
100
AcDbEntity
8
0
100
AcDbPolyline
90
4
70
1
43
0.0
10
-448.34518736161982
20
-115.6065584044424
10
-454.74391396206943
20
-115.6065584044424
10
-454.74391396206943
20
-121.71705407694375
10
-448.34518736161982
20
-121.71705407694375
0
LWPOLYLINE
5
121
100
AcDbEntity
8
0
100
AcDbPolyline
90
4
70
1
43
0.0
10
-431.57014735503594
20
-139.70266398091005
10
-426.47424021843875
20
-139.70266398091005
10
-426.47424021843875
20
-143.85318934336379
10
-431.57014735503594
20
-143.85318934336379
0
LWPOLYLINE
5
122
100
AcDbEntity
8
0
100
AcDbPolyline
90
4
70
1
43
0.0
10
-409.03048878948834
20
-115.66420459003203
10
-403.84233208642121
20
-115.66420459003203
10
-403.84233208642121
20
-121.71705407694375
10
-409.03048878948834
20
-121.71705407694375
0
ENDSEC
0
SECTION
2
OBJECTS
0
DICTIONARY
5
C
100
AcDbDictionary
3
ACAD_GROUP
350
D
3
ACAD_MLINESTYLE
350
17
0
DICTIONARY
5
D
100
AcDbDictionary
0
DICTIONARY
5
1A
330
C
100
AcDbDictionary
0
DICTIONARY
5
17
100
AcDbDictionary
0
ENDSEC
0
EOF
