0
SECTION
2
HEADER
9
$INSUNITS
70
4
9
$ACADVER
1
AC1014
9
$HANDSEED
5
FFFF
0
ENDSEC
0
SECTION
2
TABLES
0
TABLE
2
VPORT
5
8
100
AcDbSymbolTable
0
ENDTAB
0
TABLE
2
LTYPE
5
5
100
AcDbSymbolTable
0
LTYPE
5
14
100
AcDbSymbolTableRecord
100
AcDbLinetypeTableRecord
2
BYBLOCK
70
0
0
LTYPE
5
15
100
AcDbSymbolTableRecord
100
AcDbLinetypeTableRecord
2
BYLAYER
70
0
0
LTYPE
5
16
100
AcDbSymbolTableRecord
100
AcDbLinetypeTableRecord
2
DASHED
70
0
3
Dashed __ __ __ __ __ __ __ __ __ __ __ __ __ _
72
65
73
2
40
0.75
49
0.5
74
0
49
-0.25
74
0
0
ENDTAB
0
TABLE
2
LAYER
5
2
100
AcDbSymbolTable
70
2
0
LAYER
5
50
100
AcDbSymbolTableRecord
100
AcDbLayerTableRecord
2
0
70
0
62
7
6
CONTINUOUS
0
ENDTAB
0
TABLE
2
STYLE
5
3
100
AcDbSymbolTable
70
1
0
STYLE
5
11
100
AcDbSymbolTableRecord
100
AcDbTextStyleTableRecord
2
STANDARD
70
0
0
ENDTAB
0
TABLE
2
VIEW
5
6
100
AcDbSymbolTable
70
0
0
ENDTAB
0
TABLE
2
UCS
5
7
100
AcDbSymbolTable
70
0
0
ENDTAB
0
TABLE
2
APPID
5
9
100
AcDbSymbolTable
70
2
0
APPID
5
12
100
AcDbSymbolTableRecord
100
AcDbRegAppTableRecord
2
ACAD
70
0
0
ENDTAB
0
TABLE
2
DIMSTYLE
5
A
100
AcDbSymbolTable
70
1
0
ENDTAB
0
TABLE
2
BLOCK_RECORD
5
1
100
AcDbSymbolTable
70
1
0
BLOCK_RECORD
5
1F
100
AcDbSymbolTableRecord
100
AcDbBlockTableRecord
2
*MODEL_SPACE
0
BLOCK_RECORD
5
1B
100
AcDbSymbolTableRecord
100
AcDbBlockTableRecord
2
*PAPER_SPACE
0
ENDTAB
0
ENDSEC
0
SECTION
2
BLOCKS
0
BLOCK
5
20
100
AcDbEntity
100
AcDbBlockBegin
2
*MODEL_SPACE
0
ENDBLK
5
21
100
AcDbEntity
100
AcDbBlockEnd
0
BLOCK
5
1C
100
AcDbEntity
100
AcDbBlockBegin
2
*PAPER_SPACE
0
ENDBLK
5
1D
100
AcDbEntity
100
AcDbBlockEnd
0
ENDSEC
0
SECTION
2
ENTITIES
0
LWPOLYLINE
5
100
100
AcDbEntity
8
0
100
AcDbPolyline
90
4
70
1
43
0.0
10
-195.87936037801916
20
560.19484801372846
10
-196.85211111909993
20
561.13900659404374
10
-118.72807023691779
20
641.62889489117401
10
-117.75493413053353
20
640.68513334626391
0
SPLINE
5
101
100
AcDbEntity
8
0
100
AcDbSpline
70
4
71
5
72
16
73
10
74
0
42
0.000000001
43
0.0000000001
44
0.0000000001
40
0
40
0
40
0
40
0
40
0
40
0
40
0.20000000000000001
40
0.40000000000000002
40
0.60000000000000009
40
0.80000000000000004
40
1
40
1
40
1
40
1
40
1
40
1
41
1
41
1
41
1
41
1
41
1
41
1
41
1
41
1
41
1
41
1
10
-69.952018887161657
20
651.11280810659753
30
0
10
-69.601588709825506
20
652.32022268480318
30
0
10
-69.421381362105024
20
654.88731888232019
30
0
10
-70.711641650157901
20
659.19432294109993
30
0
10
-75.137640811257086
20
665.69747058159373
30
0
10
-83.778447498001341
20
674.48371434958756
30
0
10
-92.373337752013839
20
681.56119380122038
30
0
10
-99.572405905070852
20
686.6822311957593
30
0
10
-104.70591022946854
20
689.98137665542004
30
0
10
-107.35624205339663
20
691.60219447121949
30
0
0
LINE
5
102
100
AcDbEntity
8
0
100
AcDbLine
10
-107.35624205339661
20
691.60219447121949
30
0
11
-159.30128930877254
21
649.79504151586593
31
0
0
LINE
5
103
100
AcDbEntity
8
0
100
AcDbLine
10
-159.30128930877254
20
649.79504151586593
30
0
11
-153.80025695723953
21
610.43254326018791
31
0
0
LINE
5
104
100
AcDbEntity
8
0
100
AcDbLine
10
-153.80025695723953
20
610.43254326018791
30
0
11
-166.36388896434573
21
597.47786842799474
31
0
0
LINE
5
105
100
AcDbEntity
8
0
100
AcDbLine
10
-166.36388896434573
20
597.47786842799474
30
0
11
-205.87646112094069
21
601.77021830082003
31
0
0
LINE
5
106
100
AcDbEntity
8
0
100
AcDbLine
10
-205.87646112094069
20
601.77021830082003
30
0
11
-246.07234469320829
21
548.56855557830488
31
0
0
SPLINE
5
107
100
AcDbEntity
8
0
100
AcDbSpline
70
4
71
5
72
16
73
10
74
0
42
0.000000001
43
0.0000000001
44
0.0000000001
40
-1
40
-1
40
-1
40
-1
40
-1
40
-1
40
-0.80000000000000004
40
-0.60000000000000009
40
-0.40000000000000002
40
-0.20000000000000001
40
0
40
0
40
0
40
0
40
0
40
0
41
1
41
1
41
1
41
1
41
1
41
1
41
1
41
1
41
1
41
1
10
-246.07234469320829
20
548.56855557830488
30
0
10
-244.3710795564165
20
545.96913139143658
30
0
10
-240.91618835796561
20
540.93912600182966
30
0
10
-235.57697009137698
20
533.90035092584128
30
0
10
-228.23945925194784
20
525.52635614747771
30
0
10
-219.19257951252519
20
517.15882444877934
30
0
10
-212.55686908539298
20
512.93416529858052
30
0
10
-208.2123526959758
20
511.77648100856175
30
0
10
-205.65198355608018
20
512.03526169360043
30
0
10
-204.45587337842744
20
512.42252351171192
30
0
0
LINE
5
108
100
AcDbEntity
8
0
100
AcDbLine
10
-204.45587337842744
20
512.4225235117118
30
0
11
-190.36440934382767
21
524.52845396990494
31
0
0
LINE
5
109
100
AcDbEntity
8
0
100
AcDbLine
10
-190.36440934382767
20
524.52845396990494
30
0
11
-207.61952311326445
21
541.26271418469832
31
0
0
LINE
5
110
100
AcDbEntity
8
0
100
AcDbLine
10
-207.61952311326445
20
541.26271418469832
30
0
11
-153.23141573332788
21
597.31133885957991
31
0
0
LINE
5
111
100
AcDbEntity
8
0
100
AcDbLine
10
-153.23141573332788
20
597.31133885957991
30
0
11
-98.87560477175775
21
653.39128507056773
31
0
0
LINE
5
112
100
AcDbEntity
8
0
100
AcDbLine
10
-98.87560477175775
20
653.39128507056773
30
0
11
-81.620491002320833
21
636.65702485577435
31
0
0
LINE
5
113
100
AcDbEntity
8
0
100
AcDbLine
10
-81.620491002320833
20
636.65702485577435
30
0
11
-69.952018887161657
21
651.11280810659753
31
0
0
ENDSEC
0
SECTION
2
OBJECTS
0
DICTIONARY
5
C
100
AcDbDictionary
3
ACAD_GROUP
350
D
3
ACAD_MLINESTYLE
350
17
0
DICTIONARY
5
D
100
AcDbDictionary
0
DICTIONARY
5
1A
330
C
100
AcDbDictionary
0
DICTIONARY
5
17
100
AcDbDictionary
0
ENDSEC
0
EOF
