0
SECTION
2
HEADER
9
$INSUNITS
70
4
9
$ACADVER
1
AC1014
9
$HANDSEED
5
FFFF
0
ENDSEC
0
SECTION
2
TABLES
0
TABLE
2
VPORT
5
8
100
AcDbSymbolTable
0
ENDTAB
0
TABLE
2
LTYPE
5
5
100
AcDbSymbolTable
0
LTYPE
5
14
100
AcDbSymbolTableRecord
100
AcDbLinetypeTableRecord
2
BYBLOCK
70
0
0
LTYPE
5
15
100
AcDbSymbolTableRecord
100
AcDbLinetypeTableRecord
2
BYLAYER
70
0
0
LTYPE
5
16
100
AcDbSymbolTableRecord
100
AcDbLinetypeTableRecord
2
DASHED
70
0
3
Dashed __ __ __ __ __ __ __ __ __ __ __ __ __ _
72
65
73
2
40
0.75
49
0.5
74
0
49
-0.25
74
0
0
ENDTAB
0
TABLE
2
LAYER
5
2
100
AcDbSymbolTable
70
2
0
LAYER
5
50
100
AcDbSymbolTableRecord
100
AcDbLayerTableRecord
2
0
70
0
62
7
6
CONTINUOUS
0
ENDTAB
0
TABLE
2
STYLE
5
3
100
AcDbSymbolTable
70
1
0
STYLE
5
11
100
AcDbSymbolTableRecord
100
AcDbTextStyleTableRecord
2
STANDARD
70
0
0
ENDTAB
0
TABLE
2
VIEW
5
6
100
AcDbSymbolTable
70
0
0
ENDTAB
0
TABLE
2
UCS
5
7
100
AcDbSymbolTable
70
0
0
ENDTAB
0
TABLE
2
APPID
5
9
100
AcDbSymbolTable
70
2
0
APPID
5
12
100
AcDbSymbolTableRecord
100
AcDbRegAppTableRecord
2
ACAD
70
0
0
ENDTAB
0
TABLE
2
DIMSTYLE
5
A
100
AcDbSymbolTable
70
1
0
ENDTAB
0
TABLE
2
BLOCK_RECORD
5
1
100
AcDbSymbolTable
70
1
0
BLOCK_RECORD
5
1F
100
AcDbSymbolTableRecord
100
AcDbBlockTableRecord
2
*MODEL_SPACE
0
BLOCK_RECORD
5
1B
100
AcDbSymbolTableRecord
100
AcDbBlockTableRecord
2
*PAPER_SPACE
0
ENDTAB
0
ENDSEC
0
SECTION
2
BLOCKS
0
BLOCK
5
20
100
AcDbEntity
100
AcDbBlockBegin
2
*MODEL_SPACE
0
ENDBLK
5
21
100
AcDbEntity
100
AcDbBlockEnd
0
BLOCK
5
1C
100
AcDbEntity
100
AcDbBlockBegin
2
*PAPER_SPACE
0
ENDBLK
5
1D
100
AcDbEntity
100
AcDbBlockEnd
0
ENDSEC
0
SECTION
2
ENTITIES
0
LINE
5
100
100
AcDbEntity
8
0
100
AcDbLine
10
146.87265585997386
20
603.23980909941054
30
0
11
94.347197085773644
21
603.23980909941054
31
0
0
LINE
5
101
100
AcDbEntity
8
0
100
AcDbLine
10
94.347197085773644
20
603.23980909941054
30
0
11
94.347197085773644
21
608.94823023058723
31
0
0
LINE
5
102
100
AcDbEntity
8
0
100
AcDbLine
10
94.347197085773644
20
608.94823023058723
30
0
11
78.168916256395704
21
608.94823023058723
31
0
0
LINE
5
103
100
AcDbEntity
8
0
100
AcDbLine
10
78.168916256395704
20
608.94823023058723
30
0
11
78.168916256395704
21
603.23980909941054
31
0
0
LINE
5
104
100
AcDbEntity
8
0
100
AcDbLine
10
78.168916256395704
20
603.23980909941054
30
0
11
-0.35126452442627354
21
603.23980909941054
31
0
0
LINE
5
105
100
AcDbEntity
8
0
100
AcDbLine
10
-0.35126452442627354
20
603.23980909941054
30
0
11
-0.35126452442627354
21
605.76666983194434
31
0
0
LINE
5
106
100
AcDbEntity
8
0
100
AcDbLine
10
-0.35126452442627354
20
605.76666983194434
30
0
11
-22.616929798602197
21
605.76666983194434
31
0
0
LINE
5
107
100
AcDbEntity
8
0
100
AcDbLine
10
-22.616929798602197
20
605.76666983194434
30
0
11
-22.616929798602197
21
603.23980909941054
31
0
0
LINE
5
108
100
AcDbEntity
8
0
100
AcDbLine
10
-22.616929798602197
20
603.23980909941054
30
0
11
-40.977849648362564
21
603.23980909941054
31
0
0
LINE
5
109
100
AcDbEntity
8
0
100
AcDbLine
10
-40.977849648362564
20
603.23980909941054
30
0
11
-62.293830185578983
21
632.28111638847577
31
0
0
LINE
5
110
100
AcDbEntity
8
0
100
AcDbLine
10
-62.293830185578983
20
632.28111638847577
30
0
11
-112.82266714698777
21
635.42540780587672
31
0
0
LINE
5
111
100
AcDbEntity
8
0
100
AcDbLine
10
-112.82266714698777
20
635.42540780587672
30
0
11
-112.76918270831109
21
619.10218430196528
31
0
0
LINE
5
112
100
AcDbEntity
8
0
100
AcDbLine
10
-112.76918270831109
20
619.10218430196528
30
0
11
-107.97131352623198
21
605.76666983194434
31
0
0
LINE
5
113
100
AcDbEntity
8
0
100
AcDbLine
10
-107.97131352623198
20
605.76666983194434
30
0
11
-84.103300987058262
21
605.76666983194434
31
0
0
LINE
5
114
100
AcDbEntity
8
0
100
AcDbLine
10
-84.103300987058262
20
605.76666983194434
30
0
11
-84.103300987058262
21
603.23980909941054
31
0
0
LINE
5
115
100
AcDbEntity
8
0
100
AcDbLine
10
-84.103300987058262
20
603.23980909941054
30
0
11
-107.92918813102838
21
603.23980909941054
31
0
0
LINE
5
116
100
AcDbEntity
8
0
100
AcDbLine
10
-107.92918813102838
20
603.23980909941054
30
0
11
-112.70919035242328
21
590.14067848356251
31
0
0
LINE
5
117
100
AcDbEntity
8
0
100
AcDbLine
10
-112.70919035242328
20
590.14067848356251
30
0
11
-112.70919035242328
21
552.98427302627886
31
0
0
LINE
5
118
100
AcDbEntity
8
0
100
AcDbLine
10
-112.70919035242328
20
552.98427302627886
30
0
11
-83.075935704521285
21
552.98427302627886
31
0
0
LINE
5
119
100
AcDbEntity
8
0
100
AcDbLine
10
-83.075935704521285
20
552.98427302627886
30
0
11
-69.476993195214419
21
574.38471413303012
31
0
0
LINE
5
120
100
AcDbEntity
8
0
100
AcDbLine
10
-69.476993195214419
20
574.38471413303012
30
0
11
34.474583699709456
21
570.06047193007612
31
0
0
LINE
5
121
100
AcDbEntity
8
0
100
AcDbLine
10
34.474583699709456
20
570.06047193007612
30
0
11
44.053493061320914
21
563.73217575533829
31
0
0
LINE
5
122
100
AcDbEntity
8
0
100
AcDbLine
10
44.053493061320914
20
563.73217575533829
30
0
11
59.728063637837764
21
555.57281024975418
31
0
0
LINE
5
123
100
AcDbEntity
8
0
100
AcDbLine
10
59.728063637837764
20
555.57281024975418
30
0
11
68.531589578073238
21
551.63627426021799
31
0
0
LINE
5
124
100
AcDbEntity
8
0
100
AcDbLine
10
68.531589578073238
20
551.63627426021799
30
0
11
87.735722819604831
21
545.03085275497608
31
0
0
SPLINE
5
125
100
AcDbEntity
8
0
100
AcDbSpline
70
4
71
5
72
16
73
10
74
0
42
0.000000001
43
0.0000000001
44
0.0000000001
40
-1
40
-1
40
-1
40
-1
40
-1
40
-1
40
-0.80000000000000004
40
-0.60000000000000009
40
-0.40000000000000002
40
-0.20000000000000001
40
0
40
0
40
0
40
0
40
0
40
0
41
1
41
1
41
1
41
1
41
1
41
1
41
1
41
1
41
1
41
1
10
87.735722819604831
20
545.03085275497608
30
0
10
89.026953595986797
20
544.69954477294345
30
0
10
91.636388561008005
20
544.09051668614347
30
0
10
95.631427223495109
20
543.33767059684931
30
0
10
101.1311597517437
20
542.67760205556942
30
0
10
108.43525397515613
20
542.70565890739852
30
0
10
114.83854363650462
20
543.84068059380252
30
0
10
120.11424551987076
20
545.63211858853481
30
0
10
123.8753637449198
20
547.31113105803149
30
0
10
125.81697368702095
20
548.27192652126416
30
0
0
LINE
5
126
100
AcDbEntity
8
0
100
AcDbLine
10
125.81697368702093
20
548.27192652126405
30
0
11
151.1795734977415
21
570.94041667116653
31
0
0
LINE
5
127
100
AcDbEntity
8
0
100
AcDbLine
10
151.1795734977415
20
570.94041667116653
30
0
11
234.13099441831633
21
571.13899581199075
31
0
0
ARC
5
128
100
AcDbEntity
8
0
100
AcDbCircle
10
234.63539743111372
20
579.02027610941309
30
0
40
7.8974047335726922
210
0
220
0
230
1
100
AcDbArc
50
-93.661943349774958
51
0.1371613024533378
0
LINE
5
129
100
AcDbEntity
8
0
100
AcDbLine
10
242.53277953533382
20
579.03918181754466
30
0
11
242.49607829434876
21
594.37019834135162
31
0
0
LINE
5
130
100
AcDbEntity
8
0
100
AcDbLine
10
242.49607829434876
20
594.37019834135162
30
0
11
225.05795390473409
21
594.32845285079281
31
0
0
LINE
5
131
100
AcDbEntity
8
0
100
AcDbLine
10
225.05795390473409
20
594.32845285079281
30
0
11
225.04206105103805
21
600.96729110489991
31
0
0
LINE
5
132
100
AcDbEntity
8
0
100
AcDbLine
10
225.04206105103805
20
600.96729110489991
30
0
11
220.69623566506317
21
600.95688754264938
31
0
0
LINE
5
133
100
AcDbEntity
8
0
100
AcDbLine
10
220.69623566506317
20
600.95688754264938
30
0
11
220.69623566506317
21
603.23980909941054
31
0
0
LINE
5
134
100
AcDbEntity
8
0
100
AcDbLine
10
220.69623566506317
20
603.23980909941054
30
0
11
202.01874718929105
21
603.23980909941054
31
0
0
LINE
5
135
100
AcDbEntity
8
0
100
AcDbLine
10
202.01874718929105
20
603.23980909941054
30
0
11
202.01874718929105
21
605.76666983194434
31
0
0
LINE
5
136
100
AcDbEntity
8
0
100
AcDbLine
10
202.01874718929105
20
605.76666983194434
30
0
11
193.68515010730792
21
605.76666983194434
31
0
0
LINE
5
137
100
AcDbEntity
8
0
100
AcDbLine
10
193.68515010730792
20
605.76666983194434
30
0
11
193.68515010730792
21
603.23980909941054
31
0
0
LINE
5
138
100
AcDbEntity
8
0
100
AcDbLine
10
193.68515010730792
20
603.23980909941054
30
0
11
156.1682842516924
21
603.23980909941054
31
0
0
LINE
5
139
100
AcDbEntity
8
0
100
AcDbLine
10
156.1682842516924
20
603.23980909941054
30
0
11
156.1682842516924
21
608.94823023058723
31
0
0
LINE
5
140
100
AcDbEntity
8
0
100
AcDbLine
10
156.1682842516924
20
608.94823023058723
30
0
11
146.87265585997386
21
608.94823023058723
31
0
0
LINE
5
141
100
AcDbEntity
8
0
100
AcDbLine
10
146.87265585997386
20
608.94823023058723
30
0
11
146.87265585997386
21
603.23980909941054
31
0
0
ENDSEC
0
SECTION
2
OBJECTS
0
DICTIONARY
5
C
100
AcDbDictionary
3
ACAD_GROUP
350
D
3
ACAD_MLINESTYLE
350
17
0
DICTIONARY
5
D
100
AcDbDictionary
0
DICTIONARY
5
1A
330
C
100
AcDbDictionary
0
DICTIONARY
5
17
100
AcDbDictionary
0
ENDSEC
0
EOF
