0
SECTION
2
HEADER
9
$INSUNITS
70
4
9
$ACADVER
1
AC1014
9
$HANDSEED
5
FFFF
0
ENDSEC
0
SECTION
2
TABLES
0
TABLE
2
VPORT
5
8
100
AcDbSymbolTable
0
ENDTAB
0
TABLE
2
LTYPE
5
5
100
AcDbSymbolTable
0
LTYPE
5
14
100
AcDbSymbolTableRecord
100
AcDbLinetypeTableRecord
2
BYBLOCK
70
0
0
LTYPE
5
15
100
AcDbSymbolTableRecord
100
AcDbLinetypeTableRecord
2
BYLAYER
70
0
0
LTYPE
5
16
100
AcDbSymbolTableRecord
100
AcDbLinetypeTableRecord
2
DASHED
70
0
3
Dashed __ __ __ __ __ __ __ __ __ __ __ __ __ _
72
65
73
2
40
0.75
49
0.5
74
0
49
-0.25
74
0
0
ENDTAB
0
TABLE
2
LAYER
5
2
100
AcDbSymbolTable
70
2
0
LAYER
5
50
100
AcDbSymbolTableRecord
100
AcDbLayerTableRecord
2
0
70
0
62
7
6
CONTINUOUS
0
ENDTAB
0
TABLE
2
STYLE
5
3
100
AcDbSymbolTable
70
1
0
STYLE
5
11
100
AcDbSymbolTableRecord
100
AcDbTextStyleTableRecord
2
STANDARD
70
0
0
ENDTAB
0
TABLE
2
VIEW
5
6
100
AcDbSymbolTable
70
0
0
ENDTAB
0
TABLE
2
UCS
5
7
100
AcDbSymbolTable
70
0
0
ENDTAB
0
TABLE
2
APPID
5
9
100
AcDbSymbolTable
70
2
0
APPID
5
12
100
AcDbSymbolTableRecord
100
AcDbRegAppTableRecord
2
ACAD
70
0
0
ENDTAB
0
TABLE
2
DIMSTYLE
5
A
100
AcDbSymbolTable
70
1
0
ENDTAB
0
TABLE
2
BLOCK_RECORD
5
1
100
AcDbSymbolTable
70
1
0
BLOCK_RECORD
5
1F
100
AcDbSymbolTableRecord
100
AcDbBlockTableRecord
2
*MODEL_SPACE
0
BLOCK_RECORD
5
1B
100
AcDbSymbolTableRecord
100
AcDbBlockTableRecord
2
*PAPER_SPACE
0
ENDTAB
0
ENDSEC
0
SECTION
2
BLOCKS
0
BLOCK
5
20
100
AcDbEntity
100
AcDbBlockBegin
2
*MODEL_SPACE
0
ENDBLK
5
21
100
AcDbEntity
100
AcDbBlockEnd
0
BLOCK
5
1C
100
AcDbEntity
100
AcDbBlockBegin
2
*PAPER_SPACE
0
ENDBLK
5
1D
100
AcDbEntity
100
AcDbBlockEnd
0
ENDSEC
0
SECTION
2
ENTITIES
0
LWPOLYLINE
5
100
100
AcDbEntity
8
0
100
AcDbPolyline
90
6
70
1
43
0.0
10
-511.83574115614454
20
475.01081614300392
10
-434.18434429747265
20
487.52241055832883
10
-433.94089684918498
20
486.30764181578655
10
-433.7904697299038
20
485.07788515704465
10
-511.44186658857569
20
472.56629074171968
10
-511.59229370785687
20
473.7960474004617
0
LWPOLYLINE
5
101
100
AcDbEntity
8
0
100
AcDbPolyline
90
5
70
1
43
0.0
10
-579.67936078422531
20
464.07950148811074
10
-527.72364062593965
20
472.45087566132361
10
-527.48019317765215
20
471.23610691878139
10
-527.32976605837075
20
470.00635026003948
10
-579.28548621665641
20
461.63497608682661
0
LWPOLYLINE
5
102
100
AcDbEntity
8
0
100
AcDbPolyline
90
5
70
1
43
0.0
10
-617.21265822372231
20
458.03194260790889
10
-588.59862249978687
20
462.64238393989274
10
-588.20474793221797
20
460.19785853860856
10
-616.81878365615353
20
455.58741720662476
10
-616.92696889072511
20
456.82398009616492
0
LWPOLYLINE
5
103
100
AcDbEntity
8
0
100
AcDbPolyline
90
31
70
1
43
0.0
10
-651.68455488308564
20
447.62158186986073
10
-655.88385010589934
20
446.99793468029844
10
-654.87863707848749
20
440.22938615708017
10
-672.18427601298345
20
437.43308337013076
10
-669.90704335576424
20
422.88262550171919
42
0.44502793965641241
10
-658.71400075256486
20
416.54068645175022
10
-597.53308409930492
20
426.43704973745491
10
-470.7552042617607
20
450.22398481816958
10
-348.5048938468924
20
482.14049146029078
10
-333.30879066974654
20
423.55949111803761
10
-309.53586423898412
20
427.33503512825655
10
-321.7484494283002
20
503.13067457483999
10
-348.61702540753288
20
498.80147073860587
10
-349.01089997510167
20
501.24599613989005
10
-322.14232399586911
20
505.57519997612417
10
-334.35490918518349
20
581.37083942270783
10
-358.11060029875489
20
577.48832691504981
10
-354.13759004879836
20
517.09900383204729
10
-480.22580946009549
20
509.00192297183304
10
-608.05899774248383
20
491.76460675971987
10
-669.25203151905623
20
481.94344664316338
42
0.44502793965641763
10
-677.88663037978392
20
472.40677551824353
10
-675.47837461368078
20
457.87742877034896
10
-658.17024527649255
20
460.65827523403777
10
-656.99861175486831
20
453.91654124101751
10
-652.8159526141003
20
454.64343786196474
10
-652.28100438950332
20
452.38154941741647
10
-633.88433345123201
20
455.3457161250775
10
-633.65523914958783
20
454.12863472936152
10
-633.49045888366311
20
452.90119072379326
10
-651.88712982193454
20
449.93702401613228
0
ENDSEC
0
SECTION
2
OBJECTS
0
DICTIONARY
5
C
100
AcDbDictionary
3
ACAD_GROUP
350
D
3
ACAD_MLINESTYLE
350
17
0
DICTIONARY
5
D
100
AcDbDictionary
0
DICTIONARY
5
1A
330
C
100
AcDbDictionary
0
DICTIONARY
5
17
100
AcDbDictionary
0
ENDSEC
0
EOF
