0
SECTION
2
HEADER
9
$INSUNITS
70
4
9
$ACADVER
1
AC1014
9
$HANDSEED
5
FFFF
0
ENDSEC
0
SECTION
2
TABLES
0
TABLE
2
VPORT
5
8
100
AcDbSymbolTable
0
ENDTAB
0
TABLE
2
LTYPE
5
5
100
AcDbSymbolTable
0
LTYPE
5
14
100
AcDbSymbolTableRecord
100
AcDbLinetypeTableRecord
2
BYBLOCK
70
0
0
LTYPE
5
15
100
AcDbSymbolTableRecord
100
AcDbLinetypeTableRecord
2
BYLAYER
70
0
0
LTYPE
5
16
100
AcDbSymbolTableRecord
100
AcDbLinetypeTableRecord
2
DASHED
70
0
3
Dashed __ __ __ __ __ __ __ __ __ __ __ __ __ _
72
65
73
2
40
0.75
49
0.5
74
0
49
-0.25
74
0
0
ENDTAB
0
TABLE
2
LAYER
5
2
100
AcDbSymbolTable
70
2
0
LAYER
5
50
100
AcDbSymbolTableRecord
100
AcDbLayerTableRecord
2
0
70
0
62
7
6
CONTINUOUS
0
ENDTAB
0
TABLE
2
STYLE
5
3
100
AcDbSymbolTable
70
1
0
STYLE
5
11
100
AcDbSymbolTableRecord
100
AcDbTextStyleTableRecord
2
STANDARD
70
0
0
ENDTAB
0
TABLE
2
VIEW
5
6
100
AcDbSymbolTable
70
0
0
ENDTAB
0
TABLE
2
UCS
5
7
100
AcDbSymbolTable
70
0
0
ENDTAB
0
TABLE
2
APPID
5
9
100
AcDbSymbolTable
70
2
0
APPID
5
12
100
AcDbSymbolTableRecord
100
AcDbRegAppTableRecord
2
ACAD
70
0
0
ENDTAB
0
TABLE
2
DIMSTYLE
5
A
100
AcDbSymbolTable
70
1
0
ENDTAB
0
TABLE
2
BLOCK_RECORD
5
1
100
AcDbSymbolTable
70
1
0
BLOCK_RECORD
5
1F
100
AcDbSymbolTableRecord
100
AcDbBlockTableRecord
2
*MODEL_SPACE
0
BLOCK_RECORD
5
1B
100
AcDbSymbolTableRecord
100
AcDbBlockTableRecord
2
*PAPER_SPACE
0
ENDTAB
0
ENDSEC
0
SECTION
2
BLOCKS
0
BLOCK
5
20
100
AcDbEntity
100
AcDbBlockBegin
2
*MODEL_SPACE
0
ENDBLK
5
21
100
AcDbEntity
100
AcDbBlockEnd
0
BLOCK
5
1C
100
AcDbEntity
100
AcDbBlockBegin
2
*PAPER_SPACE
0
ENDBLK
5
1D
100
AcDbEntity
100
AcDbBlockEnd
0
ENDSEC
0
SECTION
2
ENTITIES
0
LINE
5
100
100
AcDbEntity
8
0
100
AcDbLine
10
-761.88665030954382
20
444.28399281030204
30
0
11
-791.29243023217043
21
447.49105706567025
31
0
0
LINE
5
101
100
AcDbEntity
8
0
100
AcDbLine
10
-791.29243023217043
20
447.49105706567025
30
0
11
-780.45677126158591
21
425.01566623018624
31
0
0
SPLINE
5
102
100
AcDbEntity
8
0
100
AcDbSpline
70
4
71
5
72
16
73
10
74
0
42
0.000000001
43
0.0000000001
44
0.0000000001
40
0
40
0
40
0
40
0
40
0
40
0
40
0.20000000000000001
40
0.40000000000000002
40
0.60000000000000009
40
0.80000000000000004
40
1
40
1
40
1
40
1
40
1
40
1
41
1
41
1
41
1
41
1
41
1
41
1
41
1
41
1
41
1
41
1
10
-780.45677126158591
20
425.01566623018624
30
0
10
-780.20651948438876
20
424.62551798279202
30
0
10
-779.7089973320459
20
423.87435545406271
30
0
10
-778.9715927611195
20
422.83493497313771
30
0
10
-777.95392586252615
20
421.59962970474214
30
0
10
-776.29140915556491
20
420.22280607488699
30
0
10
-774.25180408035158
20
419.20381259372607
30
0
10
-772.0659480625103
20
418.47098318491561
30
0
10
-770.26585294861331
20
417.99553389575635
30
0
10
-769.28001149548106
20
417.76108657148291
30
0
0
LINE
5
103
100
AcDbEntity
8
0
100
AcDbLine
10
-769.28001149548106
20
417.76108657148302
30
0
11
-761.84036993679297
21
416.41881958119143
31
0
0
LINE
5
104
100
AcDbEntity
8
0
100
AcDbLine
10
-761.84036993679297
20
416.41881958119143
30
0
11
-751.38817705874453
21
415.27887858123825
31
0
0
SPLINE
5
105
100
AcDbEntity
8
0
100
AcDbSpline
70
4
71
5
72
26
73
20
74
0
42
0.000000001
43
0.0000000001
44
0.0000000001
40
-1
40
-1
40
-1
40
-1
40
-1
40
-1
40
-0.93333333333333324
40
-0.86666666666666659
40
-0.79999999999999993
40
-0.73333333333333328
40
-0.66666666666666663
40
-0.59999999999999998
40
-0.53333333333333333
40
-0.46666666666666662
40
-0.39999999999999997
40
-0.33333333333333331
40
-0.26666666666666666
40
-0.20000000000000001
40
-0.13333333333333333
40
-0.066666666666666666
40
0
40
0
40
0
40
0
40
0
40
0
41
1
41
1
41
1
41
1
41
1
41
1
41
1
41
1
41
1
41
1
41
1
41
1
41
1
41
1
41
1
41
1
41
1
41
1
41
1
41
1
10
-751.38817705874453
20
415.27887858123825
30
0
10
-749.78309297840485
20
415.13874956715063
30
0
10
-746.62960084163569
20
414.96837087080917
30
0
10
-742.06940549248191
20
415.04250355896744
30
0
10
-736.33157474241398
20
415.80499852527544
30
0
10
-729.74141948576914
20
417.87607312280358
30
0
10
-723.73900391822633
20
421.0394434602494
30
0
10
-718.31859124008156
20
425.21988258350115
30
0
10
-713.43920621382517
20
430.20858455843012
30
0
10
-709.04358311978308
20
435.75809369974422
30
0
10
-705.08944538356741
20
441.70037349358887
30
0
10
-701.53866630957054
20
447.89635731714151
30
0
10
-698.36085608899634
20
454.24844755367667
30
0
10
-695.52964634922273
20
460.68640904612562
30
0
10
-693.02070755232126
20
467.16500783187996
30
0
10
-690.81334398933677
20
473.65721308448946
30
0
10
-689.2764132316106
20
478.85132071419036
30
0
10
-688.24830590150543
20
482.7451370031265
30
0
10
-687.61787459889604
20
485.34023872129796
30
0
10
-687.3164023741441
20
486.6375954763609
30
0
0
LINE
5
106
100
AcDbEntity
8
0
100
AcDbLine
10
-687.31640237414399
20
486.63759547636096
30
0
11
-684.72936721240239
21
497.767235996333
31
0
0
SPLINE
5
107
100
AcDbEntity
8
0
100
AcDbSpline
70
4
71
5
72
16
73
10
74
0
42
0.000000001
43
0.0000000001
44
0.0000000001
40
-1
40
-1
40
-1
40
-1
40
-1
40
-1
40
-0.80000000000000004
40
-0.60000000000000009
40
-0.40000000000000002
40
-0.20000000000000001
40
0
40
0
40
0
40
0
40
0
40
0
41
1
41
1
41
1
41
1
41
1
41
1
41
1
41
1
41
1
41
1
10
-684.72936721240239
20
497.767235996333
30
0
10
-684.46623833889566
20
499.57561296555116
30
0
10
-684.06207575967176
20
503.04650589973119
30
0
10
-683.82191539861526
20
507.81558413920317
30
0
10
-684.24322773193558
20
513.35833459015714
30
0
10
-686.3735257379642
20
518.94173603569413
30
0
10
-690.01338983617688
20
522.10165170627033
30
0
10
-694.33506703778767
20
523.49340187995608
30
0
10
-698.03330380152022
20
523.92710897669622
30
0
10
-700.08688400482481
20
524.02032479037223
30
0
0
LINE
5
108
100
AcDbEntity
8
0
100
AcDbLine
10
-700.08688400482481
20
524.02032479037211
30
0
11
-752.90469367158767
21
526.36393113728798
31
0
0
LINE
5
109
100
AcDbEntity
8
0
100
AcDbLine
10
-752.90469367158767
20
526.36393113728798
30
0
11
-754.62637092212981
21
510.57776089062236
31
0
0
ARC
5
110
100
AcDbEntity
8
0
100
AcDbCircle
10
-756.58222018267804
20
495.73681850001748
30
0
40
14.969265759256189
210
0
220
0
230
1
100
AcDbArc
50
-95.055475318327723
51
82.492402291973718
0
LINE
5
111
100
AcDbEntity
8
0
100
AcDbLine
10
-757.90131553847732
20
480.8257855105312
30
0
11
-761.88665030954382
21
444.28399281030204
31
0
0
ENDSEC
0
SECTION
2
OBJECTS
0
DICTIONARY
5
C
100
AcDbDictionary
3
ACAD_GROUP
350
D
3
ACAD_MLINESTYLE
350
17
0
DICTIONARY
5
D
100
AcDbDictionary
0
DICTIONARY
5
1A
330
C
100
AcDbDictionary
0
DICTIONARY
5
17
100
AcDbDictionary
0
ENDSEC
0
EOF
